<?xml version="1.0" encoding="utf-8"?>
<!-- Generator: Adobe Illustrator 24.3.0, SVG Export Plug-In . SVG Version: 6.00 Build 0)  -->
<svg version="1.1" id="Camada_1" xmlns="http://www.w3.org/2000/svg" xmlns:xlink="http://www.w3.org/1999/xlink" x="0px" y="0px"
	 viewBox="0 0 110 110" style="enable-background:new 0 0 110 110;" xml:space="preserve">
<path d="M75.62,0H34.38C15.39,0,0,15.39,0,34.38v41.25C0,94.61,15.39,110,34.38,110h41.25C94.61,110,110,94.61,110,75.62V34.38
	C110,15.39,94.61,0,75.62,0z M99.69,75.62c0,13.27-10.79,24.06-24.06,24.06H34.38c-13.27,0-24.06-10.79-24.06-24.06V34.38
	c0-13.27,10.79-24.06,24.06-24.06h41.25c13.27,0,24.06,10.79,24.06,24.06V75.62z"/>
<path d="M55,27.5c-15.19,0-27.5,12.31-27.5,27.5S39.81,82.5,55,82.5S82.5,70.19,82.5,55S70.19,27.5,55,27.5z M55,72.19
	c-9.47,0-17.19-7.71-17.19-17.19c0-9.48,7.71-17.19,17.19-17.19S72.19,45.52,72.19,55C72.19,64.47,64.47,72.19,55,72.19z"/>
<circle cx="84.56" cy="25.44" r="3.66"/>
</svg>
