<?xml version="1.0" encoding="utf-8"?>
<!-- Generator: Adobe Illustrator 24.3.0, SVG Export Plug-In . SVG Version: 6.00 Build 0)  -->
<svg version="1.1" id="Camada_1" xmlns="http://www.w3.org/2000/svg" xmlns:xlink="http://www.w3.org/1999/xlink" x="0px" y="0px"
	 viewBox="0 0 116.76 116.76" style="enable-background:new 0 0 116.76 116.76;" xml:space="preserve">
<g>
	<path d="M116.73,116.76L116.73,116.76l0.03,0V73.93c0-20.95-4.51-37.09-29-37.09c-11.77,0-19.67,6.46-22.9,12.59h-0.34V38.8H41.3
		v77.95h24.18v-38.6c0-10.16,1.93-19.99,14.51-19.99c12.4,0,12.59,11.6,12.59,20.64v37.95H116.73z M116.73,116.76"/>
	<rect x="1.93" y="38.81" width="24.21" height="77.95"/>
	<path d="M14.02,0C6.28,0,0,6.28,0,14.02c0,7.74,6.28,14.15,14.02,14.15c7.74,0,14.02-6.41,14.02-14.15C28.04,6.28,21.76,0,14.02,0
		L14.02,0z M14.02,0"/>
</g>
</svg>
