<?xml version="1.0" encoding="utf-8"?>
<!-- Generator: Adobe Illustrator 24.3.0, SVG Export Plug-In . SVG Version: 6.00 Build 0)  -->
<svg version="1.1" id="Camada_1" xmlns="http://www.w3.org/2000/svg" xmlns:xlink="http://www.w3.org/1999/xlink" x="0px" y="0px"
	 viewBox="0 0 91.69 112" style="enable-background:new 0 0 91.69 112;" xml:space="preserve">
<path d="M45.82,30.55c5.63,0,10.18-4.56,10.18-10.18c0-1.91-0.53-3.72-1.45-5.24L45.82,0l-8.73,15.12
	c-0.92,1.53-1.45,3.33-1.45,5.24C35.64,25.99,40.19,30.55,45.82,30.55z M69.21,81.38l-5.47-5.47l-5.5,5.47
	c-6.64,6.64-18.25,6.64-24.89,0l-5.47-5.47l-5.5,5.47c-3.28,3.33-7.69,5.17-12.4,5.17c-3.69,0-7.13-1.17-9.98-3.13v23.49
	c0,2.8,2.29,5.09,5.09,5.09h81.45c2.8,0,5.09-2.29,5.09-5.09V83.41c-2.85,1.96-6.26,3.13-9.98,3.13
	C76.95,86.55,72.55,84.71,69.21,81.38L69.21,81.38z M76.36,45.82H50.91V35.64H40.73v10.18H15.27C6.85,45.82,0,52.67,0,61.09v7.84
	c0,5.5,4.48,9.98,9.98,9.98c2.67,0,5.17-1.04,7.05-2.93l10.89-10.87l10.87,10.84c3.77,3.77,10.33,3.77,14.1,0l10.89-10.84
	l10.87,10.84c1.88,1.88,4.38,2.93,7.05,2.93c5.5,0,9.98-4.48,9.98-9.98v-7.81C91.64,52.67,84.79,45.82,76.36,45.82L76.36,45.82z"/>
</svg>
