<?xml version="1.0" encoding="iso-8859-1"?>
<!-- Generator: Adobe Illustrator 24.3.0, SVG Export Plug-In . SVG Version: 6.00 Build 0)  -->
<svg version="1.1" id="Camada_1" xmlns="http://www.w3.org/2000/svg" xmlns:xlink="http://www.w3.org/1999/xlink" x="0px" y="0px"
	 viewBox="0 0 512 376" style="enable-background:new 0 0 512 376;" xml:space="preserve">
<path style="fill:#FFFFFF;" d="M452,376H60c-33.084,0-60-26.916-60-60V60C0,26.916,26.916,0,60,0h392c33.084,0,60,26.916,60,60v256
	C512,349.084,485.084,376,452,376z M60,40c-11.028,0-20,8.972-20,20v256c0,11.028,8.972,20,20,20h392c11.028,0,20-8.972,20-20V60
	c0-11.028-8.972-20-20-20H60z"/>
<polygon style="fill:#FFFFFF;" points="256,232.926 19.522,57.032 43.396,24.937 256,183.074 468.604,24.937 492.478,57.032 "/>
<g>
</g>
<g>
</g>
<g>
</g>
<g>
</g>
<g>
</g>
<g>
</g>
<g>
</g>
<g>
</g>
<g>
</g>
<g>
</g>
<g>
</g>
<g>
</g>
<g>
</g>
<g>
</g>
<g>
</g>
</svg>
