<?xml version="1.0" encoding="utf-8"?>
<!-- Generator: Adobe Illustrator 24.3.0, SVG Export Plug-In . SVG Version: 6.00 Build 0)  -->
<svg version="1.1" id="Camada_1" xmlns="http://www.w3.org/2000/svg" xmlns:xlink="http://www.w3.org/1999/xlink" x="0px" y="0px"
	 viewBox="0 0 125.92 113.96" style="enable-background:new 0 0 125.92 113.96;" xml:space="preserve">
<style type="text/css">
	.st0{stroke:#000000;stroke-width:3;stroke-miterlimit:10;}
</style>
<g>
	<path class="st0" d="M115.75,1.5H10.05c-4.73,0-8.55,4.34-8.55,9.6v72.04c0,5.26,3.81,9.6,8.55,9.6h38.91l-1.31,14.99h-8.81
		c-1.31,0-2.37,1.05-2.37,2.37s1.05,2.37,2.37,2.37h48.25c1.31,0,2.37-1.05,2.37-2.37s-1.05-2.37-2.37-2.37h-8.81l-1.31-14.99h38.91
		c4.73,0,8.55-4.34,8.55-9.6V10.97C124.42,5.71,120.48,1.5,115.75,1.5L115.75,1.5z M10.05,6.1h105.7c2.23,0,3.94,2.24,3.94,5v0.13
		H6.1V11.1C6.1,8.21,7.81,6.1,10.05,6.1L10.05,6.1z M6.1,15.83h113.72v58.64H6.1V15.83z M73.55,107.6h-21.3l1.31-14.99h18.67
		L73.55,107.6z M115.75,88.01H10.05c-2.23,0-3.94-2.24-3.94-5V78.8h113.72v4.34C119.82,85.77,117.98,88.01,115.75,88.01
		L115.75,88.01z M115.75,88.01"/>
	<path class="st0" d="M92.74,45.54l-15.38-7.62c-1.18-0.53-2.5-0.13-3.02,1.05c-0.53,1.18-0.13,2.5,1.05,3.03l11.17,5.65
		l-11.31,5.52c-1.18,0.53-1.58,1.97-1.05,3.02c0.39,0.79,1.18,1.31,2.1,1.31c0.39,0,0.66-0.13,1.05-0.26l15.38-7.62
		c0.79-0.39,1.31-1.18,1.31-2.1C94.06,46.59,93.53,45.94,92.74,45.54L92.74,45.54z M92.74,45.54"/>
	<path class="st0" d="M51.59,38.97c-0.53-1.18-1.97-1.58-3.02-1.05l-15.38,7.62c-0.79,0.4-1.31,1.18-1.31,2.1
		c0,0.92,0.53,1.71,1.31,2.1l15.25,7.62c0.39,0.13,0.66,0.26,1.05,0.26c0.79,0,1.71-0.53,2.1-1.31c0.53-1.18,0.13-2.5-1.05-3.03
		l-11.31-5.65l11.31-5.52C51.72,41.47,52.12,40.15,51.59,38.97L51.59,38.97z M51.59,38.97"/>
	<path class="st0" d="M69.47,32.39c-1.18-0.53-2.5,0-3.02,1.18L55.01,60.66c-0.53,1.18,0,2.5,1.18,3.03
		c0.26,0.13,0.66,0.13,0.92,0.13c0.92,0,1.71-0.53,2.1-1.44l11.57-26.95C71.18,34.24,70.65,32.79,69.47,32.39L69.47,32.39z
		 M69.47,32.39"/>
</g>
</svg>
