<?xml version="1.0" encoding="iso-8859-1"?>
<!-- Generator: Adobe Illustrator 24.3.0, SVG Export Plug-In . SVG Version: 6.00 Build 0)  -->
<svg version="1.1" id="Camada_1" xmlns="http://www.w3.org/2000/svg" xmlns:xlink="http://www.w3.org/1999/xlink" x="0px" y="0px"
	 viewBox="0 0 1920 1080" style="enable-background:new 0 0 1920 1080;" xml:space="preserve">
<g>
	<path style="fill:#FFFFFF;" d="M745.98,383.49c-38.748,0-70.11,31.357-70.11,70.11c0,12.297,3.207,24.308,9.297,34.901
		l-9.033,28.052c-0.63,1.956-0.112,4.099,1.34,5.552c1.439,1.439,3.578,1.976,5.552,1.34l28.052-9.033
		c10.593,6.09,22.604,9.297,34.901,9.297c38.748,0,70.11-31.357,70.11-70.11C816.09,414.852,784.733,383.49,745.98,383.49
		L745.98,383.49z M745.98,512.754c-11.108,0-21.935-3.099-31.312-8.963c-1.349-0.843-3.024-1.071-4.583-0.569l-20.25,6.522
		l6.522-20.25c0.494-1.536,0.286-3.214-0.57-4.583c-5.863-9.377-8.962-20.204-8.962-31.312c0-32.618,26.537-59.155,59.155-59.155
		s59.155,26.537,59.155,59.155S778.598,512.754,745.98,512.754L745.98,512.754z M752.827,453.599c0,3.781-3.065,6.847-6.847,6.847
		s-6.847-3.066-6.847-6.847c0-3.782,3.065-6.847,6.847-6.847S752.827,449.817,752.827,453.599L752.827,453.599z M780.214,453.599
		c0,3.781-3.065,6.847-6.847,6.847c-3.782,0-6.847-3.066-6.847-6.847c0-3.782,3.065-6.847,6.847-6.847
		C777.149,446.753,780.214,449.817,780.214,453.599L780.214,453.599z M725.44,453.599c0,3.781-3.065,6.847-6.847,6.847
		c-3.781,0-6.847-3.066-6.847-6.847c0-3.782,3.066-6.847,6.847-6.847C722.376,446.753,725.44,449.817,725.44,453.599L725.44,453.599
		z M725.44,453.599"/>
</g>
<g>
</g>
<g>
</g>
<g>
</g>
<g>
</g>
<g>
</g>
<g>
</g>
<g>
</g>
<g>
</g>
<g>
</g>
<g>
</g>
<g>
</g>
<g>
</g>
<g>
</g>
<g>
</g>
<g>
</g>
</svg>
