<?xml version="1.0" encoding="utf-8"?>
<!-- Generator: Adobe Illustrator 24.3.0, SVG Export Plug-In . SVG Version: 6.00 Build 0)  -->
<svg version="1.1" id="Camada_1" xmlns="http://www.w3.org/2000/svg" xmlns:xlink="http://www.w3.org/1999/xlink" x="0px" y="0px"
	 viewBox="0 0 130.9 146.24" style="enable-background:new 0 0 130.9 146.24;" xml:space="preserve">
<g>
	<path d="M65.46,75.94c20.89,0,37.97-17.08,37.97-37.97S86.35,0,65.46,0S27.49,17.08,27.49,37.97S44.57,75.94,65.46,75.94z"/>
	<path d="M130.62,106.28c-0.99-2.49-2.32-4.81-3.81-6.96c-7.63-11.27-19.4-18.74-32.66-20.56c-1.66-0.17-3.48,0.17-4.81,1.16
		c-6.96,5.14-15.25,7.79-23.88,7.79s-16.91-2.65-23.88-7.79c-1.33-0.99-3.15-1.49-4.81-1.16c-13.26,1.82-25.2,9.28-32.66,20.56
		c-1.49,2.16-2.82,4.64-3.81,6.96c-0.5,0.99-0.33,2.16,0.17,3.15c1.33,2.32,2.98,4.64,4.48,6.63c2.32,3.15,4.81,5.97,7.63,8.62
		c2.32,2.32,4.97,4.48,7.63,6.63c13.1,9.78,28.85,14.92,45.1,14.92s32-5.14,45.1-14.92c2.65-1.99,5.31-4.31,7.63-6.63
		c2.65-2.65,5.31-5.47,7.63-8.62c1.66-2.16,3.15-4.31,4.48-6.63C130.95,108.43,131.12,107.27,130.62,106.28z"/>
</g>
</svg>
