<?xml version="1.0" encoding="iso-8859-1"?>
<!-- Generator: Adobe Illustrator 24.3.0, SVG Export Plug-In . SVG Version: 6.00 Build 0)  -->
<svg version="1.1" id="Camada_1" xmlns="http://www.w3.org/2000/svg" xmlns:xlink="http://www.w3.org/1999/xlink" x="0px" y="0px"
	 viewBox="0 0 149.833 142.929" style="enable-background:new 0 0 149.833 142.929;" xml:space="preserve">
<path style="fill:#FFFFFF;" d="M149.618,54.274c-0.516-1.589-1.89-2.748-3.543-2.988l-46.449-6.75L78.853,2.447
	C78.114,0.948,76.587,0,74.917,0l0,0c-1.671,0-3.197,0.948-3.936,2.447l-20.774,42.09l-46.448,6.75
	c-1.653,0.24-3.027,1.398-3.543,2.987c-0.517,1.589-0.086,3.334,1.111,4.5l33.609,32.762l-7.933,46.262
	c-0.283,1.647,0.394,3.311,1.746,4.293c0.765,0.555,1.67,0.838,2.581,0.838c0.699,0,1.4-0.167,2.042-0.504l41.545-21.842
	l41.544,21.842c1.479,0.778,3.271,0.648,4.623-0.334s2.029-2.647,1.747-4.294l-7.936-46.261l33.613-32.763
	C149.704,57.607,150.135,55.863,149.618,54.274z"/>
<g>
</g>
<g>
</g>
<g>
</g>
<g>
</g>
<g>
</g>
<g>
</g>
<g>
</g>
<g>
</g>
<g>
</g>
<g>
</g>
<g>
</g>
<g>
</g>
<g>
</g>
<g>
</g>
<g>
</g>
</svg>
