<?xml version="1.0" encoding="utf-8"?>
<!-- Generator: Adobe Illustrator 24.3.0, SVG Export Plug-In . SVG Version: 6.00 Build 0)  -->
<svg version="1.1" id="Camada_1" xmlns="http://www.w3.org/2000/svg" xmlns:xlink="http://www.w3.org/1999/xlink" x="0px" y="0px"
	 viewBox="0 0 112.15 112.15" style="enable-background:new 0 0 112.15 112.15;" xml:space="preserve">
<g>
	<path d="M56.08,0C25.28,0,0,25.28,0,56.08c0,26.28,18.44,50.16,42.93,56.08V93.6c-2.43,0.53-4.66,0.55-7.13-0.18
		c-3.31-0.98-6.01-3.19-8-6.55c-1.27-2.15-3.53-4.48-5.89-4.31l-0.58-6.55c5.09-0.44,9.5,3.1,12.12,7.5c1.16,1.96,2.5,3.1,4.22,3.61
		c1.66,0.49,3.44,0.25,5.52-0.48c0.52-4.16,2.42-5.71,3.86-7.9v0c-14.61-2.18-20.43-9.93-22.74-16.04
		c-3.06-8.12-1.42-18.27,3.99-24.68c0.1-0.12,0.3-0.45,0.22-0.68c-2.48-7.5,0.54-13.7,0.65-14.36c2.87,0.85,3.33-0.85,12.44,4.68
		l1.57,0.95c0.66,0.39,0.45,0.17,1.11,0.12c3.8-1.03,7.82-1.6,11.77-1.66c3.98,0.05,7.97,0.62,11.93,1.7l0.51,0.05
		c-0.04-0.01,0.14-0.03,0.45-0.22c11.38-6.9,10.98-4.64,14.03-5.63c0.11,0.66,3.1,6.96,0.64,14.37c-0.33,1.02,9.87,10.36,4.22,25.36
		c-2.31,6.12-8.13,13.87-22.74,16.05v0c1.87,2.85,4.12,4.37,4.11,10.26v23.16c24.49-5.92,42.93-29.79,42.93-56.08
		C112.15,25.28,86.88,0,56.08,0L56.08,0z M56.08,0"/>
</g>
</svg>
