<?xml version="1.0" encoding="utf-8"?>
<!-- Generator: Adobe Illustrator 24.3.0, SVG Export Plug-In . SVG Version: 6.00 Build 0)  -->
<svg version="1.1" id="Camada_1" xmlns="http://www.w3.org/2000/svg" xmlns:xlink="http://www.w3.org/1999/xlink" x="0px" y="0px"
	 viewBox="0 0 136.1 112" style="enable-background:new 0 0 136.1 112;" xml:space="preserve">
<style type="text/css">
	.st0{clip-path:url(#SVGID_2_);}
</style>
<g>
	<g>
		<defs>
			<rect id="SVGID_1_" width="136.1" height="112"/>
		</defs>
		<clipPath id="SVGID_2_">
			<use xlink:href="#SVGID_1_"  style="overflow:visible;"/>
		</clipPath>
		<path class="st0" d="M123.87,79.93H84c-6.52,0-12.31,3.14-15.95,7.99c-3.64-4.85-9.43-7.99-15.95-7.99H12.23
			c-2.2,0-3.99,1.79-3.99,3.99v3.99h33.44c9.33,0,18.61,1.85,26.37,7.02c7.76-5.17,17.04-7.02,26.37-7.02h33.44v-3.99
			C127.86,81.71,126.07,79.93,123.87,79.93L123.87,79.93z M123.87,79.93"/>
		<path class="st0" d="M60.57,109.19c-4.42-3.55-10.78-5.34-18.89-5.34H3.99c-2.2,0-3.99-1.79-3.99-3.99c0-2.2,1.78-3.99,3.99-3.99
			h37.69c9.98,0,18.01,2.39,23.88,7.1c1.45,1.17,3.53,1.17,4.98,0c5.87-4.71,13.91-7.1,23.88-7.1h37.69c2.2,0,3.99,1.78,3.99,3.99
			c0,2.2-1.78,3.99-3.99,3.99H94.42c-8.11,0-14.47,1.8-18.89,5.34C71.19,112.68,64.96,112.72,60.57,109.19L60.57,109.19z
			 M60.57,109.19"/>
	</g>
	<path d="M95.96,40.53v11.48c0,1.51-0.85,2.89-2.2,3.57L76.12,64.4c-1.95,0.98-3.74,2.24-5.32,3.74c-1.54,1.47-3.97,1.47-5.51,0
		c-1.57-1.5-3.36-2.76-5.32-3.74l-17.63-8.82c-1.35-0.67-2.2-2.06-2.2-3.57V40.53l24.63,7.04c2.1,0.6,4.39,0.62,6.57,0L95.96,40.53z
		 M95.96,40.53"/>
	<path d="M111.91,35.97v24.02c0,2.2-1.79,3.99-3.99,3.99c-2.2,0-3.99-1.79-3.99-3.99V38.25L111.91,35.97z M111.91,35.97"/>
	<path d="M66.96,39.9L11.13,23.95c-3.84-1.1-3.85-6.57,0-7.67L66.96,0.33c0.72-0.2,1.47-0.2,2.19,0l55.82,15.95
		c3.84,1.1,3.85,6.57,0,7.67L69.15,39.9C68.43,40.1,67.67,40.1,66.96,39.9L66.96,39.9z M66.96,39.9"/>
</g>
</svg>
